<svg xmlns="http://www.w3.org/2000/svg" width="35" height="33" viewBox="0 0 35 33">
  <g fill="none" fill-rule="evenodd">
    <rect width="34" height="32" x=".5" y=".5" stroke="#FF532E"/>
    <g fill="#FF532E" fill-rule="nonzero" transform="translate(8 7)">
      <path d="M15.8836241,0 L4.11637586,0 C1.84688651,0 0,1.84648631 0,4.11597567 L0,15.8836241 C0,18.1535137 1.84648631,20 4.11637586,20 L15.8836241,20 C18.1531135,20 20,18.1535137 20,15.8836241 L20,4.11637586 C20,1.84648631 18.1535137,0 15.8836241,0 Z M19.1996158,15.8836241 C19.1996158,17.7121018 17.7121018,19.1996158 15.8836241,19.1996158 L4.11637586,19.1996158 C2.28789819,19.1996158 0.800384184,17.7121018 0.800384184,15.8836241 L0.800384184,4.11637586 C0.800384184,2.28829838 2.28789819,0.800784377 4.11637586,0.800784377 L15.8836241,0.800784377 C17.7121018,0.800784377 19.1996158,2.28829838 19.1996158,4.11637586 L19.1996158,15.8836241 Z"/>
      <path d="M12.6 9.8C12.6 8.25594013 11.3440599 7 9.8 7 8.25594013 7 7 8.25594013 7 9.8 7 11.3440599 8.25594013 12.6 9.8 12.6 11.3440599 12.6 12.6 11.3440599 12.6 9.8zM7.87352666 9.8C7.87352666 8.73744933 8.73788587 7.87309012 9.80043655 7.87309012 10.8629872 7.87309012 11.7273464 8.73744933 11.7273464 9.8 11.7273464 10.8625507 10.8629872 11.7269099 9.80043655 11.7269099 8.73788587 11.7269099 7.87352666 10.8625507 7.87352666 9.8zM15.5743111 3.2L14.8256889 3.2C14.1497521 3.2 13.6 3.74987891 13.6 4.42560258L13.6 5.17439742C13.6 5.85049014 14.1497521 6.4 14.8256889 6.4L15.5743111 6.4C16.2502479 6.4 16.8 5.85012109 16.8 5.17439742L16.8 4.42560258C16.8 3.74987891 16.2502479 3.2 15.5743111 3.2zM16.0620777 5.17476646C16.0620777 5.44380118 15.8432838 5.66227655 15.5743111 5.66227655L14.8256889 5.66227655C14.5567162 5.66227655 14.3379223 5.44343213 14.3379223 5.17476646L14.3379223 4.42597163C14.3379223 4.15693692 14.5567162 3.93846154 14.8256889 3.93846154L15.5743111 3.93846154C15.8432838 3.93846154 16.0620777 4.15730596 16.0620777 4.42597163L16.0620777 5.17476646z"/>
    </g>
  </g>
</svg>
