<svg xmlns="http://www.w3.org/2000/svg" width="70" height="70" viewBox="0 0 70 70">
  <g fill="none" fill-rule="evenodd">
    <polygon fill="#FF531A" points="0 70 70 70 70 0 0 0"/>
    <g fill="#FFF" transform="translate(18.103 14.483)">
      <path d="M16.0567931 44.6186034C12.500069 35.9832586 11.2473103 27.0401552 11.2473103 17.8170517 11.2473103 13.8391207 11.5019655 9.85515517 12.1645517 5.93274138L15.5583448 5.93274138C14.7388621 9.66446552 14.483 13.4891207 14.483 17.2992931 14.483 25.3046379 15.4762759 33.8168793 17.7923103 41.5289483 20.1095517 33.8168793 21.1040345 25.3046379 21.1040345 17.2992931 21.1040345 13.4891207 20.8493793 9.66446552 20.0298966 5.93274138L23.4212759 5.93274138C24.0838621 9.85515517 24.3385172 13.8391207 24.3385172 17.8170517 24.3385172 27.0401552 23.0869655 35.9832586 19.5290345 44.6186034L16.0567931 44.6186034zM29.919569 15.4539483C30.2285345 15.1751552 30.7016379 15.1980862 30.9840517 15.5058448 31.2640517 15.8136034 31.2423276 16.2879138 30.9357759 16.5691207 30.6256034 16.8491207 30.1500862 16.8286034 29.8712931 16.5196379 29.5912931 16.2130862 29.6130172 15.7351552 29.919569 15.4539483M29.919569 17.7923103C30.2285345 17.5147241 30.7016379 17.5376552 30.9840517 17.8442069 31.2640517 18.1531724 31.2423276 18.6274828 30.9357759 18.9086897 30.6256034 19.1886897 30.1500862 19.1669655 29.8712931 18.858 29.5912931 18.5502414 29.6130172 18.0747241 29.919569 17.7923103M31.5148448 19.6191897C31.8213966 19.3391897 32.2957069 19.3609138 32.5769138 19.6686724 32.8569138 19.9776379 32.8363966 20.4519483 32.5298448 20.7331552 32.2196724 21.0131552 31.7453621 20.991431 31.4641552 20.6824655 31.1853621 20.3747069 31.2070862 19.8991897 31.5148448 19.6191897M29.4457414 25.719569C29.7535 25.439569 30.2278103 25.4625 30.5090172 25.7702586 30.7890172 26.0780172 30.7672931 26.5535345 30.4607414 26.8347414 30.1517759 27.1147414 29.6762586 27.0930172 29.3950517 26.7852586 29.1162586 26.4762931 29.1379828 25.999569 29.4457414 25.719569M29.3651207 28.0875C29.6873621 27.8243966 30.1604655 27.8702586 30.4247759 28.1925 30.6890862 28.5147414 30.644431 28.9878448 30.3233966 29.2533621 29.9999483 29.5176724 29.5256379 29.4706034 29.2625345 29.1483621 28.999431 28.8261207 29.0440862 28.3530172 29.3651207 28.0875M30.8901552 29.9849828C31.2148103 29.7267069 31.6879138 29.7810172 31.9473966 30.1056724 32.2068793 30.4315345 32.1537759 30.9046379 31.8279138 31.1653276 31.5032586 31.4236034 31.0289483 31.3692931 30.7706724 31.043431 30.5123966 30.7187759 30.5642931 30.2456724 30.8901552 29.9849828M31.0404138 24.2616379C31.3481724 23.9828448 31.8236897 24.0057759 32.1048966 24.3123276 32.3848966 24.6212931 32.3631724 25.0968103 32.0542069 25.3780172 31.7464483 25.6580172 31.2721379 25.6350862 30.990931 25.3273276 30.7121379 25.019569 30.7338621 24.5428448 31.0404138 24.2616379M27.9065862 35.8886379C28.2457241 35.6472586 28.714 35.7257069 28.9553793 36.0648448 29.1979655 36.4051897 29.1195172 36.8734655 28.7803793 37.1172586 28.4412414 37.357431 27.9717586 37.2777759 27.7303793 36.9386379 27.4902069 36.6007069 27.5686552 36.1288103 27.9065862 35.8886379M27.7291724 38.5063966C28.0767586 38.2758793 28.5426207 38.3688103 28.7743448 38.7151897 29.006069 39.061569 28.911931 39.5286379 28.5667586 39.7591552 28.2215862 39.9896724 27.7545172 39.8979483 27.5227931 39.551569 27.2922759 39.2063966 27.384 38.7381207 27.7291724 38.5063966M29.6826552 34.6157241C30.0217931 34.3755517 30.490069 34.4564138 30.7326552 34.7943448 30.9728276 35.1346897 30.8943793 35.6041724 30.5552414 35.8455517 30.2148966 36.0857241 29.7454138 36.006069 29.5040345 35.666931 29.265069 35.3277931 29.3435172 34.8571034 29.6826552 34.6157241M33.3245862 11.9205172C33.5056207 11.5475862 33.9557931 11.3931034 34.329931 11.5741379 34.7052759 11.7551724 34.8621724 12.2053448 34.679931 12.5794828 34.4988966 12.9548276 34.0475172 13.1081034 33.6733793 12.9282759 33.2992414 12.7460345 33.1423448 12.2958621 33.3245862 11.9205172M33.9439655 9.57624138C33.9632759 9.15986207 34.3168966 8.84244828 34.7344828 8.86296552 35.1496552 8.88227586 35.4682759 9.23589655 35.4489655 9.65106897 35.4272414 10.0674483 35.0748276 10.386069 34.6596552 10.3667586 34.2432759 10.3450345 33.9234483 9.99262069 33.9439655 9.57624138M33.852 6.89608621C33.7747586 6.48694828 34.0426897 6.0935 34.4530345 6.01625862 34.8609655 5.93781034 35.2556207 6.20694828 35.3328621 6.61608621 35.4101034 7.02401724 35.1397586 7.41867241 34.7318276 7.49591379 34.3226897 7.57194828 33.9292414 7.30522414 33.852 6.89608621M33.0199655 4.494C32.8099655 4.13434483 32.9318621 3.67451724 33.2915172 3.46331034 33.6499655 3.25331034 34.111 3.3727931 34.321 3.73365517 34.5322069 4.09210345 34.4103103 4.55193103 34.0518621 4.76434483 33.6922069 4.97193103 33.2311724 4.85365517 33.0199655 4.494M31.8024483 13.7119138C32.1102069 13.4319138 32.5857241 13.452431 32.866931 13.7613966 33.146931 14.0703621 33.1252069 14.5446724 32.8162414 14.8246724 32.5096897 15.1046724 32.0329655 15.0841552 31.7529655 14.7751897 31.4741724 14.467431 31.4971034 13.9919138 31.8024483 13.7119138M5.69087931 15.4539483C5.38432759 15.1751552 4.90881034 15.1980862 4.62639655 15.5058448 4.34639655 15.8136034 4.36932759 16.2879138 4.67587931 16.5691207 4.98484483 16.8491207 5.46036207 16.8286034 5.74036207 16.5196379 6.01915517 16.2130862 5.99743103 15.7351552 5.69087931 15.4539483M5.69087931 17.7923103C5.38432759 17.5147241 4.90881034 17.5376552 4.62639655 17.8442069 4.34639655 18.1531724 4.36932759 18.6274828 4.67587931 18.9086897 4.98484483 19.1886897 5.46036207 19.1669655 5.74036207 18.858 6.01915517 18.5502414 5.99743103 18.0747241 5.69087931 17.7923103M4.09681034 19.6191897C3.78905172 19.3391897 3.31474138 19.3609138 3.03353448 19.6686724 2.75232759 19.9776379 2.77525862 20.4519483 3.08060345 20.7331552 3.39077586 21.0131552 3.86508621 20.991431 4.1462931 20.6824655 4.42508621 20.3747069 4.40336207 19.8991897 4.09681034 19.6191897M6.16591379 25.719569C5.85936207 25.439569 5.38263793 25.4625 5.10143103 25.7702586 4.82143103 26.0780172 4.84436207 26.5535345 5.15091379 26.8347414 5.45867241 27.1147414 5.93418966 27.0930172 6.21539655 26.7852586 6.49298276 26.4762931 6.47246552 25.999569 6.16591379 25.719569M6.24544828 28.0875C5.92441379 27.8243966 5.45010345 27.8702586 5.1857931 28.1925 4.92148276 28.5147414 4.96613793 28.9878448 5.28837931 29.2533621 5.61062069 29.5176724 6.08372414 29.4706034 6.34803448 29.1483621 6.61234483 28.8261207 6.56648276 28.3530172 6.24544828 28.0875M4.7215 29.9849828C4.39563793 29.7267069 3.92374138 29.7810172 3.66425862 30.1056724 3.40477586 30.4315345 3.45667241 30.9046379 3.78253448 31.1653276 4.10839655 31.4236034 4.5815 31.3692931 4.84098276 31.043431 5.09925862 30.7187759 5.04736207 30.2456724 4.7215 29.9849828M4.56943103 24.2616379C4.26287931 23.9828448 3.78736207 24.0057759 3.50615517 24.3123276 3.22615517 24.6212931 3.24787931 25.0968103 3.55563793 25.3780172 3.86339655 25.6580172 4.34012069 25.6350862 4.62012069 25.3273276 4.89891379 25.019569 4.87718966 24.5428448 4.56943103 24.2616379M7.70398276 35.8886379C7.36605172 35.6472586 6.89656897 35.7257069 6.65398276 36.0648448 6.41260345 36.4051897 6.49225862 36.8734655 6.82898276 37.1172586 7.16932759 37.357431 7.63881034 37.2777759 7.88018966 36.9386379 8.12156897 36.6007069 8.04312069 36.1288103 7.70398276 35.8886379M7.88018966 38.5063966C7.53381034 38.2758793 7.06794828 38.3688103 6.83743103 38.7151897 6.6045 39.061569 6.69863793 39.5286379 7.04381034 39.7591552 7.39018966 39.9896724 7.85605172 39.8979483 8.08777586 39.551569 8.3182931 39.2063966 8.22656897 38.7381207 7.88018966 38.5063966M5.9277931 34.6157241C5.58865517 34.3755517 5.12037931 34.4564138 4.879 34.7943448 4.63762069 35.1346897 4.71848276 35.6041724 5.05641379 35.8455517 5.39555172 36.0857241 5.86503448 36.006069 6.10641379 35.666931 6.34537931 35.3277931 6.26813793 34.8571034 5.9277931 34.6157241M2.28767241 11.9205172C2.10543103 11.5475862 1.65525862 11.3931034 1.27991379 11.5741379.905775862 11.7551724.74887931 12.2053448.929913793 12.5794828 1.11336207 12.9548276 1.56232759 13.1081034 1.93767241 12.9282759 2.31181034 12.7460345 2.4675 12.2958621 2.28767241 11.9205172M1.66768966 9.57624138C1.64596552 9.15986207 1.29355172 8.84244828.877172414 8.86296552.462 8.88227586.142172414 9.23589655.162689655 9.65106897.183206897 10.0674483.536827586 10.386069.950793103 10.3667586 1.36717241 10.3450345 1.6882069 9.99262069 1.66768966 9.57624138M1.75844828 6.89608621C1.83568966 6.48694828 1.56775862 6.0935 1.15862069 6.01625862.749482759 5.93781034.356034483 6.20694828.277586207 6.61608621.200344828 7.02401724.469482759 7.41867241.87862069 7.49591379 1.28775862 7.57194828 1.6812069 7.30522414 1.75844828 6.89608621M2.59060345 4.494C2.80060345 4.13434483 2.67991379 3.67451724 2.31905172 3.46331034 1.96060345 3.25331034 1.49956897 3.3727931 1.28956897 3.73365517 1.08077586 4.09210345 1.20025862 4.55193103 1.5587069 4.76434483 1.91836207 4.97193103 2.37939655 4.85365517 2.59060345 4.494M3.80872414 13.7119138C3.49975862 13.4319138 3.02544828 13.452431 2.74424138 13.7613966 2.46424138 14.0703621 2.48717241 14.5446724 2.79372414 14.8246724 3.10268966 15.1046724 3.5782069 15.0841552 3.8582069 14.7751897 4.137 14.467431 4.11527586 13.9919138 3.80872414 13.7119138"/>
      <path d="M6.82355172 2.26763793C7.06251724 2.00574138 7.46682759 1.98763793 7.72872414 2.22539655 7.99062069 2.46315517 8.00993103 2.86987931 7.77096552 3.13177586 7.532 3.39487931 7.12648276 3.41177586 6.86458621 3.17401724 6.60268966 2.93505172 6.58337931 2.52953448 6.82355172 2.26763793M12.8821724 35.7891897L8.5807931 32.7586724C8.23562069 32.4835 8.18131034 31.9826379 8.45527586 31.6386724L11.3313103 28.2738448C11.9263103 27.6209138 11.8792414 26.6107414 11.2275172 26.0145345L7.62493103 22.7353966C7.30027586 22.4385 7.27613793 21.9352241 7.57303448 21.6093621L10.857 18.0103966C11.452 17.3586724 11.404931 16.3472931 10.7532069 15.7535L5.98355172 11.3953966C5.33303448 10.8003966 5.34751724 9.83608621 5.88096552 9.1385L10.844931 2.51022414C11.3325172 1.87056897 11.3011379 1.1247069 10.7580345.62987931 10.4864828.382465517 9.95062069.0916034483 8.97182759.197810345 4.28906897.702293103 1.14751724 4.80694828 1.66527586 9.55367241 1.92355172 11.9397069 2.77441379 12.7953966 3.24148276 13.221431L6.8332069 16.500569C7.15786207 16.7974655 7.1807931 17.2995345 6.88389655 17.6253966L3.60113793 21.2243621C3.00734483 21.8772931 3.05441379 22.8874655 3.70613793 23.4812586L7.30631034 26.7640172C7.63217241 27.0609138 7.65510345 27.5653966 7.3582069 27.8888448L4.46768966 31.5107414C3.91734483 32.1998793 4.02837931 33.206431 4.71751724 33.7579828L9.02613793 36.8319483C9.37372414 37.1022931 9.43406897 37.6019483 9.16251724 37.9483276L7.30631034 40.7229828C6.79096552 41.4398793 6.95631034 42.4391897 7.67441379 42.9521207 8.39251724 43.4662586 9.38941379 43.3021207 9.90234483 42.5828103L13.1525172 38.0340172C13.6968276 37.3388448 13.574931 36.3371207 12.8821724 35.7891897M28.7463448 3.17401724C28.4832414 3.41177586 28.078931 3.39487931 27.8399655 3.13177586 27.601 2.86987931 27.6191034 2.46315517 27.8834138 2.22539655 28.1428966 1.98763793 28.5484138 2.00574138 28.7873793 2.26763793 29.0263448 2.52953448 29.0082414 2.93505172 28.7463448 3.17401724M26.6391034.197810345C25.6591034.0916034483 25.1244483.382465517 24.8528966.62987931 24.3073793 1.1247069 24.2784138 1.87056897 24.766 2.51022414L29.7311724 9.1385C30.2622069 9.8372931 30.2791034 10.8003966 29.6261724 11.3953966L24.8577241 15.7535C24.2047931 16.3472931 24.1565172 17.3586724 24.7515172 18.0103966L28.0378966 21.6093621C28.3347931 21.9352241 28.3118621 22.4385 27.9847931 22.7353966L24.3834138 26.0145345C23.7304828 26.6107414 23.6846207 27.6209138 24.2796207 28.2738448L27.1556552 31.6386724C27.4308276 31.9826379 27.3741034 32.4835 27.0313448 32.7586724L22.7311724 35.7891897C22.0347931 36.3371207 21.9153103 37.3388448 22.4584138 38.0340172L25.7061724 42.5828103C26.2203103 43.3021207 27.2196207 43.4662586 27.9365172 42.9521207 28.6534138 42.4391897 28.8199655 41.4398793 28.3046207 40.7229828L26.4484138 37.9483276C26.1756552 37.6019483 26.2372069 37.1022931 26.5835862 36.8319483L30.8922069 33.7579828C31.5825517 33.206431 31.6923793 32.1998793 31.1432414 31.5107414L28.2527241 27.8900517C27.9558276 27.5653966 27.9775517 27.0609138 28.3034138 26.7640172L31.9035862 23.4812586C32.5565172 22.8874655 32.6023793 21.8772931 32.0097931 21.2243621L28.7258276 17.6253966C28.428931 17.2995345 28.453069 16.7974655 28.7777241 16.500569L32.3694483 13.221431C32.8365172 12.7953966 33.6873793 11.9397069 33.9468621 9.55367241 34.4634138 4.80694828 31.3218621.702293103 26.6391034.197810345"/>
    </g>
  </g>
</svg>
